<svg width="141" height="38" viewBox="0 0 141 38" fill="none" xmlns="http://www.w3.org/2000/svg">
<path d="M121.632 0H3C1.35 0 0 1.35 0 3V35C0 36.65 1.35 38 3 38H121.632L141 19L121.632 0Z" fill="#EE3643"/>
<path d="M34.1013 22.13H36.4643V15.415L36.7193 14.259L35.9033 15.262L34.3903 16.299L33.4553 15.024L37.3313 11.896H38.5723V22.13H40.8843V24H34.1013V22.13ZM45.7698 22.283C46.5178 22.283 47.0901 22.1017 47.4868 21.739C47.8835 21.3763 48.0818 20.8777 48.0818 20.243C48.0818 19.563 47.8495 19.0643 47.3848 18.747C46.9201 18.4297 46.2571 18.271 45.3958 18.271L44.0528 18.322V12.1H49.9008V14.174H45.9568V16.469L46.6538 16.401C47.2091 16.4237 47.7078 16.5257 48.1498 16.707C48.6031 16.8883 48.9885 17.1433 49.3058 17.472C49.6231 17.7893 49.8668 18.1803 50.0368 18.645C50.2068 19.0983 50.2918 19.6083 50.2918 20.175C50.2918 20.8437 50.1785 21.433 49.9518 21.943C49.7251 22.453 49.4078 22.878 48.9998 23.218C48.6031 23.558 48.1328 23.813 47.5888 23.983C47.0448 24.153 46.4498 24.238 45.8038 24.238C45.2938 24.238 44.8065 24.1927 44.3418 24.102C43.8885 24.0227 43.5031 23.9093 43.1858 23.762L43.7808 21.926C44.0415 22.0393 44.3248 22.13 44.6308 22.198C44.9481 22.2547 45.3278 22.283 45.7698 22.283ZM55.4153 22.283C56.1633 22.283 56.7356 22.1017 57.1323 21.739C57.529 21.3763 57.7273 20.8777 57.7273 20.243C57.7273 19.563 57.495 19.0643 57.0303 18.747C56.5656 18.4297 55.9026 18.271 55.0413 18.271L53.6983 18.322V12.1H59.5463V14.174H55.6023V16.469L56.2993 16.401C56.8546 16.4237 57.3533 16.5257 57.7953 16.707C58.2486 16.8883 58.634 17.1433 58.9513 17.472C59.2686 17.7893 59.5123 18.1803 59.6823 18.645C59.8523 19.0983 59.9373 19.6083 59.9373 20.175C59.9373 20.8437 59.824 21.433 59.5973 21.943C59.3706 22.453 59.0533 22.878 58.6453 23.218C58.2486 23.558 57.7783 23.813 57.2343 23.983C56.6903 24.153 56.0953 24.238 55.4493 24.238C54.9393 24.238 54.452 24.1927 53.9873 24.102C53.534 24.0227 53.1486 23.9093 52.8313 23.762L53.4263 21.926C53.687 22.0393 53.9703 22.13 54.2763 22.198C54.5936 22.2547 54.9733 22.283 55.4153 22.283ZM62.0008 18.033C62.0008 15.9477 62.3578 14.4007 63.0718 13.392C63.7858 12.372 64.8115 11.862 66.1488 11.862C67.5768 11.862 68.6251 12.3663 69.2938 13.375C69.9625 14.3723 70.2968 15.925 70.2968 18.033C70.2968 20.1297 69.9341 21.688 69.2088 22.708C68.4948 23.728 67.4691 24.238 66.1318 24.238C64.7151 24.238 63.6725 23.7053 63.0038 22.64C62.3351 21.5633 62.0008 20.0277 62.0008 18.033ZM64.2108 18.033C64.2108 19.4157 64.3581 20.4867 64.6528 21.246C64.9588 21.994 65.4575 22.368 66.1488 22.368C66.8175 22.368 67.3048 22.0223 67.6108 21.331C67.9281 20.6397 68.0868 19.5403 68.0868 18.033C68.0868 16.6617 67.9395 15.602 67.6448 14.854C67.3501 14.106 66.8458 13.732 66.1318 13.732C65.4518 13.732 64.9588 14.0833 64.6528 14.786C64.3581 15.4887 64.2108 16.571 64.2108 18.033ZM71.6463 18.033C71.6463 15.9477 72.0033 14.4007 72.7173 13.392C73.4313 12.372 74.457 11.862 75.7943 11.862C77.2223 11.862 78.2706 12.3663 78.9393 13.375C79.608 14.3723 79.9423 15.925 79.9423 18.033C79.9423 20.1297 79.5796 21.688 78.8543 22.708C78.1403 23.728 77.1146 24.238 75.7773 24.238C74.3606 24.238 73.318 23.7053 72.6493 22.64C71.9806 21.5633 71.6463 20.0277 71.6463 18.033ZM73.8563 18.033C73.8563 19.4157 74.0036 20.4867 74.2983 21.246C74.6043 21.994 75.103 22.368 75.7943 22.368C76.463 22.368 76.9503 22.0223 77.2563 21.331C77.5736 20.6397 77.7323 19.5403 77.7323 18.033C77.7323 16.6617 77.585 15.602 77.2903 14.854C76.9956 14.106 76.4913 13.732 75.7773 13.732C75.0973 13.732 74.6043 14.0833 74.2983 14.786C74.0036 15.4887 73.8563 16.571 73.8563 18.033ZM85.9316 12.219C86.4076 12.1283 86.929 12.0603 87.4956 12.015C88.0736 11.9583 88.6459 11.93 89.2126 11.93C89.8019 11.93 90.3913 11.981 90.9806 12.083C91.5813 12.1737 92.1196 12.3663 92.5956 12.661C93.0716 12.9443 93.4569 13.3467 93.7516 13.868C94.0576 14.378 94.2106 15.0467 94.2106 15.874C94.2106 16.622 94.0803 17.2567 93.8196 17.778C93.5589 18.288 93.2133 18.7073 92.7826 19.036C92.3519 19.3647 91.8589 19.6027 91.3036 19.75C90.7596 19.8973 90.1929 19.971 89.6036 19.971C89.5469 19.971 89.4563 19.971 89.3316 19.971C89.2069 19.971 89.0766 19.971 88.9406 19.971C88.8046 19.9597 88.6686 19.9483 88.5326 19.937C88.4079 19.9257 88.3173 19.9143 88.2606 19.903V24H85.9316V12.219ZM89.3996 13.936C89.1729 13.936 88.9576 13.9473 88.7536 13.97C88.5496 13.9813 88.3853 13.9983 88.2606 14.021V17.88C88.3059 17.8913 88.3739 17.9027 88.4646 17.914C88.5553 17.9253 88.6516 17.9367 88.7536 17.948C88.8556 17.948 88.9519 17.948 89.0426 17.948C89.1446 17.948 89.2183 17.948 89.2636 17.948C89.5696 17.948 89.8699 17.9197 90.1646 17.863C90.4706 17.8063 90.7426 17.7043 90.9806 17.557C91.2186 17.3983 91.4056 17.183 91.5416 16.911C91.6889 16.639 91.7626 16.282 91.7626 15.84C91.7626 15.466 91.6946 15.16 91.5586 14.922C91.4226 14.6727 91.2413 14.4743 91.0146 14.327C90.7993 14.1797 90.5499 14.0777 90.2666 14.021C89.9833 13.9643 89.6943 13.936 89.3996 13.936ZM93.1461 22.878C93.1461 22.4813 93.2708 22.1697 93.5201 21.943C93.7695 21.705 94.0981 21.586 94.5061 21.586C94.9368 21.586 95.2768 21.705 95.5261 21.943C95.7755 22.1697 95.9001 22.4813 95.9001 22.878C95.9001 23.2747 95.7755 23.592 95.5261 23.83C95.2768 24.068 94.9368 24.187 94.5061 24.187C94.0981 24.187 93.7695 24.068 93.5201 23.83C93.2708 23.592 93.1461 23.2747 93.1461 22.878Z" fill="white"/>
</svg>
