<svg width="135" height="38" viewBox="0 0 135 38" fill="none" xmlns="http://www.w3.org/2000/svg">
<mask id="path-1-inside-1" fill="white">
<rect width="135" height="38" rx="2"/>
</mask>
<rect width="135" height="38" rx="2" stroke="#63A63E" stroke-width="6" mask="url(#path-1-inside-1)"/>
<path d="M36.6214 24.14C35.7534 24.14 35.0067 24.0467 34.3814 23.86V14.34C35.0067 14.1533 35.7534 14.06 36.6214 14.06C37.5921 14.06 38.3014 14.27 38.7494 14.69C39.1974 15.11 39.4214 15.7633 39.4214 16.65C39.4214 17.6207 39.048 18.3113 38.3014 18.722V18.778C39.328 19.0767 39.8414 19.9307 39.8414 21.34C39.8414 22.0027 39.734 22.5393 39.5194 22.95C39.314 23.3607 38.978 23.664 38.5114 23.86C38.0447 24.0467 37.4147 24.14 36.6214 24.14ZM36.4814 18.4C37.0414 18.4 37.4614 18.2553 37.7414 17.966C38.0214 17.6767 38.1614 17.238 38.1614 16.65C38.1614 15.53 37.6014 14.97 36.4814 14.97H35.6414V18.4H36.4814ZM36.6214 23.23C37.3214 23.23 37.8207 23.0853 38.1194 22.796C38.4274 22.4973 38.5814 22.012 38.5814 21.34C38.5814 20.612 38.4274 20.094 38.1194 19.786C37.8207 19.4687 37.3214 19.31 36.6214 19.31H35.6414V23.23H36.6214ZM46.0714 24.14C45.7354 24.14 45.3807 24.112 45.0074 24.056C44.634 24 44.3354 23.9347 44.1114 23.86V23.23H46.0714C46.7714 23.23 47.2707 23.0853 47.5694 22.796C47.8774 22.4973 48.0314 22.012 48.0314 21.34C48.0314 20.64 47.8774 20.1407 47.5694 19.842C47.2707 19.534 46.7714 19.38 46.0714 19.38H45.0914V18.4H45.9314C46.5567 18.4 47.014 18.26 47.3034 17.98C47.602 17.6907 47.7514 17.2473 47.7514 16.65C47.7514 16.0807 47.602 15.6607 47.3034 15.39C47.014 15.11 46.5567 14.97 45.9314 14.97H44.2514V14.34C44.466 14.2653 44.7554 14.2 45.1194 14.144C45.4834 14.088 45.8007 14.06 46.0714 14.06C47.1074 14.06 47.854 14.27 48.3114 14.69C48.778 15.11 49.0114 15.7633 49.0114 16.65C49.0114 17.2007 48.9087 17.6487 48.7034 17.994C48.498 18.33 48.1807 18.596 47.7514 18.792V18.848C48.2834 18.9973 48.6707 19.2913 48.9134 19.73C49.1654 20.1687 49.2914 20.7053 49.2914 21.34C49.2914 22.0027 49.184 22.5393 48.9694 22.95C48.764 23.3607 48.428 23.664 47.9614 23.86C47.4947 24.0467 46.8647 24.14 46.0714 24.14ZM50.1286 24L52.5086 14.2H54.3286L56.7086 24H55.4486L54.8186 21.48H52.0186L51.3886 24H50.1286ZM52.2286 20.5H54.6086L53.4466 15.6H53.3906L52.2286 20.5ZM63.0054 24.14C62.5854 24.14 62.2354 24 61.9554 23.72C61.6847 23.44 61.498 23.02 61.3954 22.46L61.0454 20.64C60.9614 20.1827 60.8027 19.8607 60.5694 19.674C60.3454 19.478 60.0607 19.38 59.7154 19.38H59.2254V24H57.9654V14.2H59.2254V18.4H59.7154C60.3034 18.4 60.7 17.98 60.9054 17.14L61.2554 15.74C61.3954 15.18 61.6007 14.76 61.8714 14.48C62.142 14.2 62.4734 14.06 62.8654 14.06C63.0707 14.06 63.262 14.0833 63.4394 14.13C63.6167 14.1673 63.7054 14.1907 63.7054 14.2V14.83C63.3694 14.83 63.1174 14.9093 62.9494 15.068C62.7814 15.2173 62.66 15.4413 62.5854 15.74L62.2354 17.14C62.0954 17.7093 61.932 18.1153 61.7454 18.358C61.5587 18.6007 61.302 18.7687 60.9754 18.862V18.918C61.358 19.0207 61.6614 19.198 61.8854 19.45C62.1094 19.6927 62.2727 20.0893 62.3754 20.64L62.7254 22.46C62.7814 22.7307 62.898 22.95 63.0754 23.118C63.262 23.286 63.5187 23.37 63.8454 23.37V24C63.8454 24.0093 63.7567 24.0327 63.5794 24.07C63.402 24.1167 63.2107 24.14 63.0054 24.14ZM64.757 24.14C64.5517 24.14 64.3603 24.1167 64.183 24.07C64.0057 24.0327 63.917 24.0093 63.917 24V23.37C64.3277 23.37 64.6543 23.1927 64.897 22.838C65.1397 22.4833 65.2797 21.8907 65.317 21.06L65.667 14.2H70.357V24H69.097V15.18H66.885L66.577 21.06C66.521 22.1147 66.325 22.894 65.989 23.398C65.6623 23.8927 65.2517 24.14 64.757 24.14ZM71.6208 24L74.0008 14.2H75.8208L78.2008 24H76.9408L76.3108 21.48H73.5108L72.8808 24H71.6208ZM73.7208 20.5H76.1008L74.9388 15.6H74.8828L73.7208 20.5ZM78.6175 23.02H79.3175C79.3175 23.048 79.3735 22.9313 79.4855 22.67C79.6069 22.3993 79.7189 22.054 79.8215 21.634C79.9242 21.2047 79.9895 20.71 80.0175 20.15L80.2975 14.2H84.8475V23.02H85.7575V26.1H84.9875C84.7822 25.54 84.6422 24.84 84.5675 24H79.8075C79.7422 24.84 79.6022 25.54 79.3875 26.1H78.6175V23.02ZM83.5875 23.02V15.18H81.5155L81.2775 20.15C81.2495 20.71 81.1842 21.2047 81.0815 21.634C80.9789 22.054 80.8669 22.3993 80.7455 22.67C80.6335 22.9313 80.5775 23.048 80.5775 23.02H83.5875ZM92.1264 24.14C91.7064 24.14 91.3564 24 91.0764 23.72C90.8058 23.44 90.6191 23.02 90.5164 22.46L90.1664 20.64C90.0824 20.1827 89.9238 19.8607 89.6904 19.674C89.4664 19.478 89.1818 19.38 88.8364 19.38H88.3464V24H87.0864V14.2H88.3464V18.4H88.8364C89.4244 18.4 89.8211 17.98 90.0264 17.14L90.3764 15.74C90.5164 15.18 90.7218 14.76 90.9924 14.48C91.2631 14.2 91.5944 14.06 91.9864 14.06C92.1918 14.06 92.3831 14.0833 92.5604 14.13C92.7378 14.1673 92.8264 14.1907 92.8264 14.2V14.83C92.4904 14.83 92.2384 14.9093 92.0704 15.068C91.9024 15.2173 91.7811 15.4413 91.7064 15.74L91.3564 17.14C91.2164 17.7093 91.0531 18.1153 90.8664 18.358C90.6798 18.6007 90.4231 18.7687 90.0964 18.862V18.918C90.4791 19.0207 90.7824 19.198 91.0064 19.45C91.2304 19.6927 91.3938 20.0893 91.4964 20.64L91.8464 22.46C91.9024 22.7307 92.0191 22.95 92.1964 23.118C92.3831 23.286 92.6398 23.37 92.9664 23.37V24C92.9664 24.0093 92.8778 24.0327 92.7004 24.07C92.5231 24.1167 92.3318 24.14 92.1264 24.14ZM94.0181 24V14.2H95.2781V21.48H95.3481L98.1481 14.2H99.6181V24H98.3581V16.72H98.2881L95.4181 24H94.0181Z" fill="#32425C"/>
</svg>
